<mxfile host="Electron" modified="2023-07-13T15:02:21.813Z" agent="Mozilla/5.0 (Windows NT 10.0; Win64; x64) AppleWebKit/537.36 (KHTML, like Gecko) draw.io/21.6.1 Chrome/112.0.5615.204 Electron/24.6.1 Safari/537.36" etag="0H5z6_wu0kNyIMS9Fkal" version="21.6.1" type="device">
  <diagram name="第 1 页" id="elbhN_RY5unKvZCPfmQA">
    <mxGraphModel dx="1102" dy="902" grid="1" gridSize="10" guides="1" tooltips="1" connect="1" arrows="1" fold="1" page="1" pageScale="1" pageWidth="827" pageHeight="1169" math="0" shadow="0">
      <root>
        <mxCell id="0" />
        <mxCell id="1" parent="0" />
        <mxCell id="esQgCrf6cFFUGkgWy3zV-1" value="&lt;h1&gt;零拷贝技术之splice系统调用&lt;/h1&gt;" style="text;html=1;align=center;verticalAlign=middle;resizable=0;points=[];autosize=1;strokeColor=none;fillColor=none;" vertex="1" parent="1">
          <mxGeometry x="240" y="38" width="330" height="70" as="geometry" />
        </mxCell>
        <mxCell id="esQgCrf6cFFUGkgWy3zV-20" style="edgeStyle=orthogonalEdgeStyle;rounded=0;orthogonalLoop=1;jettySize=auto;html=1;exitX=0.5;exitY=1;exitDx=0;exitDy=0;entryX=0.5;entryY=0;entryDx=0;entryDy=0;fontFamily=Helvetica;fontSize=12;fontColor=default;" edge="1" parent="1" source="esQgCrf6cFFUGkgWy3zV-3" target="esQgCrf6cFFUGkgWy3zV-9">
          <mxGeometry relative="1" as="geometry" />
        </mxCell>
        <mxCell id="esQgCrf6cFFUGkgWy3zV-3" value="&lt;p style=&quot;font-size: 20px;&quot;&gt;&lt;font color=&quot;#ff3108&quot;&gt;splice()&lt;/font&gt;&lt;/p&gt;" style="rounded=0;whiteSpace=wrap;html=1;fillColor=#d5e8d4;strokeColor=#82b366;" vertex="1" parent="1">
          <mxGeometry x="310" y="140" width="120" height="60" as="geometry" />
        </mxCell>
        <mxCell id="esQgCrf6cFFUGkgWy3zV-4" value="" style="shape=link;html=1;rounded=0;" edge="1" parent="1">
          <mxGeometry width="100" relative="1" as="geometry">
            <mxPoint x="80" y="410" as="sourcePoint" />
            <mxPoint x="690" y="410" as="targetPoint" />
          </mxGeometry>
        </mxCell>
        <mxCell id="esQgCrf6cFFUGkgWy3zV-5" value="&lt;font color=&quot;#ff2908&quot;&gt;&lt;span style=&quot;font-size: 20px;&quot;&gt;用户态空间&lt;/span&gt;&lt;/font&gt;" style="text;html=1;align=center;verticalAlign=middle;resizable=0;points=[];autosize=1;strokeColor=none;fillColor=none;rotation=0;" vertex="1" parent="1">
          <mxGeometry x="100" y="300" width="120" height="40" as="geometry" />
        </mxCell>
        <mxCell id="esQgCrf6cFFUGkgWy3zV-8" value="&lt;font color=&quot;#ff2908&quot;&gt;&lt;span style=&quot;font-size: 20px;&quot;&gt;内核空间&lt;/span&gt;&lt;/font&gt;" style="text;html=1;align=center;verticalAlign=middle;resizable=0;points=[];autosize=1;strokeColor=none;fillColor=none;rotation=0;" vertex="1" parent="1">
          <mxGeometry x="100" y="510" width="100" height="40" as="geometry" />
        </mxCell>
        <mxCell id="esQgCrf6cFFUGkgWy3zV-9" value="" style="rounded=0;whiteSpace=wrap;html=1;fontFamily=Helvetica;fontSize=12;fontColor=default;fillColor=none;gradientColor=none;" vertex="1" parent="1">
          <mxGeometry x="90" y="570" width="560" height="210" as="geometry" />
        </mxCell>
        <mxCell id="esQgCrf6cFFUGkgWy3zV-15" style="edgeStyle=orthogonalEdgeStyle;rounded=0;orthogonalLoop=1;jettySize=auto;html=1;fontFamily=Helvetica;fontSize=12;fontColor=default;" edge="1" parent="1" source="esQgCrf6cFFUGkgWy3zV-10" target="esQgCrf6cFFUGkgWy3zV-12">
          <mxGeometry relative="1" as="geometry" />
        </mxCell>
        <mxCell id="esQgCrf6cFFUGkgWy3zV-10" value="&lt;h1&gt;&lt;font color=&quot;#ff350d&quot; style=&quot;font-size: 20px; font-weight: normal;&quot;&gt;磁盘文件&lt;/font&gt;&lt;/h1&gt;" style="rounded=0;whiteSpace=wrap;html=1;fontFamily=Helvetica;fontSize=12;fontColor=default;fillColor=none;gradientColor=none;" vertex="1" parent="1">
          <mxGeometry x="110" y="700" width="120" height="60" as="geometry" />
        </mxCell>
        <mxCell id="esQgCrf6cFFUGkgWy3zV-14" style="edgeStyle=orthogonalEdgeStyle;rounded=0;orthogonalLoop=1;jettySize=auto;html=1;exitX=1;exitY=0.5;exitDx=0;exitDy=0;fontFamily=Helvetica;fontSize=12;fontColor=default;" edge="1" parent="1" source="esQgCrf6cFFUGkgWy3zV-12" target="esQgCrf6cFFUGkgWy3zV-13">
          <mxGeometry relative="1" as="geometry" />
        </mxCell>
        <mxCell id="esQgCrf6cFFUGkgWy3zV-12" value="&lt;h1&gt;&lt;font color=&quot;#ff350d&quot;&gt;&lt;span style=&quot;font-size: 20px; font-weight: 400;&quot;&gt;Page Cache&lt;/span&gt;&lt;/font&gt;&lt;/h1&gt;" style="rounded=0;whiteSpace=wrap;html=1;fontFamily=Helvetica;fontSize=12;fontColor=default;fillColor=none;gradientColor=none;" vertex="1" parent="1">
          <mxGeometry x="110" y="590" width="120" height="60" as="geometry" />
        </mxCell>
        <mxCell id="esQgCrf6cFFUGkgWy3zV-17" style="edgeStyle=orthogonalEdgeStyle;rounded=0;orthogonalLoop=1;jettySize=auto;html=1;exitX=0.5;exitY=0;exitDx=0;exitDy=0;exitPerimeter=0;entryX=0;entryY=0.5;entryDx=0;entryDy=0;fontFamily=Helvetica;fontSize=12;fontColor=default;" edge="1" parent="1" source="esQgCrf6cFFUGkgWy3zV-13" target="esQgCrf6cFFUGkgWy3zV-16">
          <mxGeometry relative="1" as="geometry" />
        </mxCell>
        <mxCell id="esQgCrf6cFFUGkgWy3zV-13" value="管道" style="shape=cylinder3;whiteSpace=wrap;html=1;boundedLbl=1;backgroundOutline=1;size=15;rounded=0;strokeColor=default;fillColor=none;gradientColor=none;direction=south;fontColor=#FF2F0F;fontSize=20;" vertex="1" parent="1">
          <mxGeometry x="300" y="605" width="140" height="30" as="geometry" />
        </mxCell>
        <mxCell id="esQgCrf6cFFUGkgWy3zV-19" style="edgeStyle=orthogonalEdgeStyle;rounded=0;orthogonalLoop=1;jettySize=auto;html=1;exitX=0.5;exitY=1;exitDx=0;exitDy=0;fontFamily=Helvetica;fontSize=12;fontColor=default;" edge="1" parent="1" source="esQgCrf6cFFUGkgWy3zV-16" target="esQgCrf6cFFUGkgWy3zV-18">
          <mxGeometry relative="1" as="geometry" />
        </mxCell>
        <mxCell id="esQgCrf6cFFUGkgWy3zV-16" value="&lt;h1&gt;&lt;font color=&quot;#ff350d&quot;&gt;&lt;span style=&quot;font-size: 20px; font-weight: 400;&quot;&gt;Socket Buffer&lt;/span&gt;&lt;/font&gt;&lt;/h1&gt;" style="rounded=0;whiteSpace=wrap;html=1;fontFamily=Helvetica;fontSize=12;fontColor=default;fillColor=none;gradientColor=none;" vertex="1" parent="1">
          <mxGeometry x="510" y="590" width="120" height="60" as="geometry" />
        </mxCell>
        <mxCell id="esQgCrf6cFFUGkgWy3zV-18" value="&lt;h1&gt;&lt;font color=&quot;#ff350d&quot;&gt;&lt;span style=&quot;font-size: 20px; font-weight: 400;&quot;&gt;网卡&lt;/span&gt;&lt;/font&gt;&lt;/h1&gt;" style="rounded=0;whiteSpace=wrap;html=1;fontFamily=Helvetica;fontSize=12;fontColor=default;fillColor=none;gradientColor=none;" vertex="1" parent="1">
          <mxGeometry x="510" y="690" width="120" height="60" as="geometry" />
        </mxCell>
      </root>
    </mxGraphModel>
  </diagram>
</mxfile>
